<svg width="87" height="26" viewBox="0 0 87 26" fill="none" xmlns="http://www.w3.org/2000/svg">
<g clip-path="url(#clip0_563_640)">
<path d="M53.4286 20.3123C48.4287 23.9977 41.1816 25.9639 34.942 25.9639C26.1931 25.9639 18.3168 22.728 12.3581 17.3461C11.8899 16.9229 12.3094 16.3461 12.8712 16.6757C19.3018 20.4172 27.253 22.6681 35.4663 22.6681C41.0056 22.6681 47.0991 21.5221 52.702 19.1438C53.5485 18.7843 54.2563 19.6981 53.4286 20.3123Z" fill="#7B8394"/>
<path d="M55.5084 17.935C54.8717 17.1185 51.2837 17.5492 49.6733 17.7402C49.1826 17.8001 49.1077 17.3732 49.5497 17.0661C52.4073 15.0549 57.0964 15.6354 57.6432 16.3095C58.19 16.9874 57.5009 21.6877 54.8155 23.9311C54.4035 24.2757 54.0103 24.0922 54.1938 23.6353C54.7968 22.1297 56.1488 18.7552 55.5084 17.935Z" fill="#7B8394"/>
<path d="M49.7872 2.86737V0.912343C49.7872 0.616467 50.0119 0.417969 50.2816 0.417969H59.0342C59.3151 0.417969 59.5399 0.620213 59.5399 0.912343V2.58648C59.5361 2.86737 59.3002 3.23441 58.8807 3.81492L54.3452 10.2905C56.0305 10.2493 57.8095 10.5002 59.3376 11.3616C59.6822 11.5564 59.7758 11.841 59.802 12.1219V14.208C59.802 14.4927 59.4874 14.826 59.1578 14.6537C56.465 13.2417 52.8883 13.0882 49.9108 14.6687C49.6074 14.8335 49.2891 14.5039 49.2891 14.2193V12.238C49.2891 11.9197 49.2928 11.3766 49.6112 10.8935L54.8658 3.358H50.2928C50.0119 3.358 49.7872 3.1595 49.7872 2.86737Z" fill="#7B8394"/>
<path d="M17.8573 15.0666H15.1944C14.9397 15.0479 14.7375 14.8569 14.7188 14.6134V0.946986C14.7188 0.673582 14.9472 0.456354 15.2319 0.456354H17.715C17.9734 0.467583 18.1794 0.666089 18.1981 0.913276V2.69977H18.2468C18.8947 0.9732 20.1119 0.167969 21.7524 0.167969C23.419 0.167969 24.4602 0.9732 25.2092 2.69977C25.8534 0.9732 27.3178 0.167969 28.8871 0.167969C30.0032 0.167969 31.2241 0.628636 31.9694 1.66233C32.8121 2.81212 32.6398 4.48251 32.6398 5.94691L32.6361 14.5723C32.6361 14.8457 32.4076 15.0666 32.123 15.0666H29.4639C29.1979 15.0479 28.9845 14.8344 28.9845 14.5723V7.32891C28.9845 6.75214 29.0369 5.31396 28.9096 4.76715C28.7111 3.84957 28.1156 3.59114 27.344 3.59114C26.6998 3.59114 26.0257 4.02184 25.7523 4.71097C25.4789 5.4001 25.5051 6.55364 25.5051 7.32891V14.5723C25.5051 14.8457 25.2766 15.0666 24.992 15.0666H22.3329C22.0632 15.0479 21.8535 14.8344 21.8535 14.5723L21.8497 7.32891C21.8497 5.80459 22.1007 3.56118 20.2093 3.56118C18.2955 3.56118 18.3704 5.74841 18.3704 7.32891V14.5723C18.3704 14.8457 18.1419 15.0666 17.8573 15.0666Z" fill="#7B8394"/>
<path d="M67.0745 0.167969C71.0257 0.167969 73.1643 3.56118 73.1643 7.87572C73.1643 12.0442 70.801 15.3513 67.0745 15.3513C63.1944 15.3513 61.082 11.9581 61.082 7.72966C61.082 3.47504 63.2206 0.167969 67.0745 0.167969ZM67.0969 2.95819C65.1344 2.95819 65.0108 5.63231 65.0108 7.29895C65.0108 8.96934 64.9846 12.5348 67.0745 12.5348C69.1381 12.5348 69.2355 9.65847 69.2355 7.90568C69.2355 6.75214 69.1868 5.37389 68.8385 4.28027C68.5389 3.32897 67.9434 2.95819 67.0969 2.95819Z" fill="#7B8394"/>
<path d="M78.2871 15.0666H75.6355C75.3696 15.0479 75.1561 14.8344 75.1561 14.5723L75.1523 0.90204C75.1748 0.651107 75.3958 0.456354 75.6654 0.456354H78.1336C78.3658 0.467583 78.5568 0.624892 78.6092 0.838372V2.92823H78.6579C79.4032 1.05934 80.4481 0.167969 82.2871 0.167969C83.4818 0.167969 84.6466 0.598675 85.3956 1.77843C86.0923 2.87205 86.0923 4.71098 86.0923 6.03305V14.6359C86.0623 14.8756 85.8413 15.0666 85.5792 15.0666H82.9088C82.6653 15.0479 82.4631 14.8681 82.4369 14.6359V7.21281C82.4369 5.71845 82.6092 3.53121 80.7702 3.53121C80.1223 3.53121 79.5268 3.96567 79.2309 4.62483C78.8564 5.46003 78.8077 6.29148 78.8077 7.21281V14.5723C78.804 14.8457 78.5718 15.0666 78.2871 15.0666Z" fill="#7B8394"/>
<path d="M42.8073 8.5369V7.96013C40.8822 7.96013 38.8485 8.37211 38.8485 10.6417C38.8485 11.7915 39.444 12.5706 40.4665 12.5706C41.2155 12.5706 41.8859 12.1099 42.3091 11.3608C42.8335 10.4395 42.8073 9.57434 42.8073 8.5369ZM45.4926 15.0274C45.3166 15.1847 45.0619 15.196 44.8634 15.0911C43.9795 14.357 43.8222 14.0162 43.3353 13.3159C41.8747 14.8065 40.841 15.2522 38.9459 15.2522C36.7062 15.2522 34.9609 13.8702 34.9609 11.1024C34.9609 8.94139 36.1332 7.4695 37.7998 6.75041C39.2455 6.11372 41.2642 6.00136 42.8073 5.82533V5.48077C42.8073 4.84782 42.856 4.09877 42.4852 3.55196C42.1593 3.06133 41.5376 2.85908 40.9908 2.85908C39.9758 2.85908 39.0695 3.37968 38.8485 4.45831C38.8036 4.69801 38.6275 4.93396 38.3879 4.9452L35.8036 4.66805C35.5864 4.61936 35.3467 4.44333 35.4066 4.11C36.0021 0.978965 38.8298 0.0351562 41.3616 0.0351562C42.6575 0.0351562 44.3503 0.37972 45.3728 1.36098C46.6686 2.5707 46.545 4.18491 46.545 5.94144V10.0912C46.545 11.3384 47.0619 11.8852 47.5488 12.5593C47.721 12.799 47.7585 13.0874 47.5413 13.2672C46.9982 13.7204 46.0319 14.563 45.5001 15.0349L45.4926 15.0274Z" fill="#7B8394"/>
<path d="M7.89711 8.5369V7.96013C5.97204 7.96013 3.93836 8.37211 3.93836 10.6417C3.93836 11.7915 4.53386 12.5706 5.55632 12.5706C6.30537 12.5706 6.97577 12.1099 7.39899 11.3608C7.92332 10.4395 7.89711 9.57434 7.89711 8.5369ZM10.5825 15.0274C10.4064 15.1847 10.1518 15.196 9.95326 15.0911C9.06938 14.357 8.91207 14.0162 8.42519 13.3159C6.96453 14.8065 5.93085 15.2522 4.03574 15.2522C1.79607 15.2522 0.0507812 13.8702 0.0507812 11.1024C0.0507812 8.94139 1.22305 7.4695 2.88969 6.75041C4.33536 6.11372 6.35406 6.00136 7.89711 5.82533V5.48077C7.89711 4.84782 7.9458 4.09877 7.57502 3.55196C7.24918 3.06133 6.62746 2.85908 6.08065 2.85908C5.06569 2.85908 4.15933 3.37968 3.93836 4.45831C3.89342 4.69801 3.71739 4.93396 3.4777 4.9452L0.893466 4.66805C0.67624 4.61936 0.436543 4.44333 0.496467 4.11C1.09196 0.978965 3.91964 0.0351562 6.45144 0.0351562C7.74729 0.0351562 9.44015 0.37972 10.4626 1.36098C11.7585 2.5707 11.6349 4.18491 11.6349 5.94144V10.0912C11.6349 11.3384 12.1517 11.8852 12.6386 12.5593C12.8109 12.799 12.8483 13.0874 12.6311 13.2672C12.0881 13.7204 11.1218 14.563 10.5899 15.0349L10.5825 15.0274Z" fill="#7B8394"/>
</g>
<defs>
<clipPath id="clip0_563_640">
<rect width="86.1429" height="26" fill="white"/>
</clipPath>
</defs>
</svg>
