<svg width="111" height="24" viewBox="0 0 111 24" fill="none" xmlns="http://www.w3.org/2000/svg">
<path d="M102.715 19.1182C102.715 17.5627 103.978 16.3008 105.532 16.3008C107.088 16.3008 108.349 17.5627 108.349 19.1182C108.349 20.6736 107.088 21.9348 105.532 21.9348C103.978 21.9348 102.715 20.6736 102.715 19.1182Z" fill="#7B8394"/>
<path d="M12.8639 11.6581C12.8639 9.87362 12.5191 8.5497 11.8294 7.6872C11.1389 6.82551 10.0929 6.39506 8.68671 6.39506H7.19081V17.3076H8.33531C9.89727 17.3076 11.0419 16.8446 11.7707 15.9152C12.4987 14.9875 12.8639 13.5682 12.8639 11.6581ZM18.1987 11.4723C18.1987 14.7234 17.3248 17.2285 15.5769 18.987C13.8291 20.7462 11.3721 21.6258 8.2049 21.6258H2.05078V2.14453H8.63449C11.6883 2.14453 14.0459 2.94426 15.7073 4.5429C17.368 6.14237 18.1987 8.45107 18.1987 11.4723Z" fill="#7B8394"/>
<path d="M35.2461 21.6253H40.1431V2.0625H35.2461V21.6253Z" fill="#7B8394"/>
<path d="M47.0236 14.3309C47.0236 15.5782 47.1867 16.5295 47.512 17.1834C47.8381 17.838 48.3842 18.1649 49.1521 18.1649C49.9119 18.1649 50.4491 17.838 50.7622 17.1834C51.0752 16.5295 51.2309 15.5782 51.2309 14.3309C51.2309 13.0902 51.0727 12.1543 50.7557 11.5225C50.4377 10.889 49.8957 10.5719 49.127 10.5719C48.3753 10.5719 47.8381 10.8874 47.512 11.5151C47.1867 12.1437 47.0236 13.082 47.0236 14.3309ZM56.2152 14.3309C56.2152 16.7073 55.5923 18.5611 54.3434 19.8899C53.0954 21.2195 51.3483 21.8847 49.1024 21.8847C46.9486 21.8847 45.2341 21.2048 43.9616 19.845C42.6875 18.4853 42.0508 16.6478 42.0508 14.3309C42.0508 11.9619 42.6745 10.1211 43.9234 8.80859C45.1723 7.49609 46.9233 6.83984 49.1782 6.83984C50.5715 6.83984 51.8041 7.14394 52.872 7.75127C53.9408 8.35861 54.7658 9.22846 55.3454 10.3616C55.9258 11.4931 56.2152 12.8171 56.2152 14.3309Z" fill="#7B8394"/>
<path d="M58.1602 21.6251H63.058V14.1381V7.09375H58.1602V21.6251Z" fill="#7B8394"/>
<path d="M58.1562 5.33724H63.0541V2.0625H58.1562V5.33724Z" fill="#7B8394"/>
<path d="M72.9769 17.9204C73.6381 17.9204 74.4255 17.7524 75.3442 17.419V21.0753C74.6839 21.3655 74.0562 21.5734 73.4595 21.6965C72.8628 21.8212 72.1624 21.8831 71.3611 21.8831C69.7168 21.8831 68.5315 21.4698 67.8034 20.6448C67.0787 19.8198 66.7151 18.553 66.7151 16.8435V10.8532H65V7.09668H66.7151V3.38579L71.6506 2.52734V7.09668H74.7753V10.8532H71.6506V16.5092C71.6506 17.45 72.0932 17.9204 72.9769 17.9204Z" fill="#7B8394"/>
<path d="M84.3136 17.9204C84.9748 17.9204 85.7624 17.7524 86.6811 17.419V21.0753C86.0216 21.3655 85.393 21.5734 84.7962 21.6965C84.1987 21.8212 83.5009 21.8831 82.6978 21.8831C81.0536 21.8831 79.8683 21.4698 79.1419 20.6448C78.4156 19.8198 78.052 18.553 78.052 16.8435V10.8532H76.3359V7.09668H78.052V3.32955L82.9865 2.52734V7.09668H86.1129V10.8532H82.9865V16.5092C82.9865 17.45 83.4292 17.9204 84.3136 17.9204Z" fill="#7B8394"/>
<path d="M92.8603 12.5602C92.9272 11.7646 93.1548 11.1817 93.5428 10.8091C93.9325 10.4374 94.4134 10.2516 94.989 10.2516C95.6167 10.2516 96.1156 10.4602 96.4857 10.8809C96.8582 11.2991 97.0523 11.8592 97.0678 12.5602H92.8603ZM99.7669 8.55264C98.6028 7.41133 96.9511 6.83984 94.8145 6.83984C92.5685 6.83984 90.8403 7.49609 89.6289 8.80859C88.4183 10.1211 87.8125 12.0043 87.8125 14.4581C87.8125 16.8345 88.4672 18.6671 89.7732 19.9535C91.0799 21.2399 92.9149 21.8839 95.2783 21.8839C96.4131 21.8839 97.3898 21.8065 98.2083 21.6524C99.0219 21.5 99.8094 21.2244 100.573 20.8266L99.8208 17.5518C99.2656 17.7785 98.7373 17.9529 98.2384 18.0679C97.5178 18.235 96.7271 18.319 95.8661 18.319C94.9222 18.319 94.177 18.0882 93.6308 17.6268C93.0846 17.1646 92.7936 16.5271 92.7602 15.7152H101.514V13.4839C101.514 11.3374 100.932 9.69314 99.7669 8.55264Z" fill="#7B8394"/>
<path d="M24.6963 12.5602C24.7631 11.7646 24.9906 11.1817 25.3785 10.8091C25.7674 10.4374 26.2493 10.2516 26.8257 10.2516C27.4518 10.2516 27.9507 10.4602 28.3216 10.8809C28.6941 11.2991 28.8874 11.8592 28.9045 12.5602H24.6963ZM31.6037 8.55264C30.4388 7.41133 28.7879 6.83984 26.6504 6.83984C24.4036 6.83984 22.6761 7.49609 21.4655 8.80859C20.2549 10.1211 19.6484 12.0043 19.6484 14.4581C19.6484 16.8345 20.3023 18.6671 21.6099 19.9535C22.9159 21.2399 24.7509 21.8839 27.1142 21.8839C28.249 21.8839 29.2256 21.8065 30.0441 21.6524C30.8577 21.5 31.6453 21.2244 32.41 20.8266L31.6567 17.5518C31.1015 17.7785 30.5732 17.9529 30.0751 18.0679C29.3529 18.235 28.5629 18.319 27.7019 18.319C26.7587 18.319 26.013 18.0882 25.4668 17.6268C24.9197 17.1646 24.6295 16.5271 24.5961 15.7152H33.3499V13.4839C33.3499 11.3374 32.7678 9.69314 31.6037 8.55264Z" fill="#7B8394"/>
</svg>
