<svg width="76" height="32" viewBox="0 0 76 32" fill="none" xmlns="http://www.w3.org/2000/svg">
<g clip-path="url(#clip0_563_621)">
<path d="M32.1597 17.1014C32.1597 20.6502 29.3834 23.2653 25.9763 23.2653C22.5692 23.2653 19.793 20.6502 19.793 17.1014C19.793 13.5276 22.5692 10.9375 25.9763 10.9375C29.3834 10.9375 32.1597 13.5276 32.1597 17.1014ZM29.4529 17.1014C29.4529 14.8837 27.8438 13.3664 25.9763 13.3664C24.1088 13.3664 22.4997 14.8837 22.4997 17.1014C22.4997 19.2968 24.1088 20.8364 25.9763 20.8364C27.8438 20.8364 29.4529 19.294 29.4529 17.1014Z" fill="#7B8394"/>
<path d="M45.4995 17.1014C45.4995 20.6502 42.7233 23.2653 39.3162 23.2653C35.9091 23.2653 33.1328 20.6502 33.1328 17.1014C33.1328 13.5303 35.9091 10.9375 39.3162 10.9375C42.7233 10.9375 45.4995 13.5276 45.4995 17.1014ZM42.7927 17.1014C42.7927 14.8837 41.1837 13.3664 39.3162 13.3664C37.4487 13.3664 35.8396 14.8837 35.8396 17.1014C35.8396 19.2968 37.4487 20.8364 39.3162 20.8364C41.1837 20.8364 42.7927 19.294 42.7927 17.1014Z" fill="#7B8394"/>
<path d="M58.2813 11.3099V22.376C58.2813 26.9281 55.5967 28.7872 52.4231 28.7872C49.4356 28.7872 47.6376 26.7891 46.9595 25.155L49.3161 24.174C49.7358 25.1773 50.764 26.3611 52.4203 26.3611C54.4518 26.3611 55.7107 25.1078 55.7107 22.7484V21.8619H55.6162C55.0104 22.6094 53.8432 23.2625 52.3703 23.2625C49.2883 23.2625 46.4648 20.578 46.4648 17.1236C46.4648 13.6443 49.2883 10.9375 52.3703 10.9375C53.8404 10.9375 55.0076 11.5906 55.6162 12.3159H55.7107V11.3127H58.2813V11.3099ZM55.9024 17.1236C55.9024 14.9532 54.4546 13.3664 52.6121 13.3664C50.7446 13.3664 49.18 14.9532 49.18 17.1236C49.18 19.2718 50.7446 20.8364 52.6121 20.8364C54.4546 20.8364 55.9024 19.2718 55.9024 17.1236Z" fill="#7B8394"/>
<path d="M62.519 4.82422V22.8879H59.8789V4.82422H62.519Z" fill="#7B8394"/>
<path d="M72.8076 19.129L74.9085 20.5296C74.2305 21.5328 72.5964 23.2614 69.7729 23.2614C66.2713 23.2614 63.6562 20.5546 63.6562 17.0975C63.6562 13.4319 66.2935 10.9336 69.47 10.9336C72.6686 10.9336 74.2332 13.4792 74.7446 14.8548L75.0253 15.5551L66.7854 18.9678C67.4163 20.2044 68.3973 20.8353 69.7729 20.8353C71.1513 20.8353 72.1073 20.1572 72.8076 19.129ZM66.3408 16.9113L71.8488 14.6241C71.5459 13.8544 70.6344 13.318 69.5617 13.318C68.1861 13.318 66.2713 14.5324 66.3408 16.9113Z" fill="#7B8394"/>
<path d="M9.797 15.4945V12.8795H18.6093C18.6955 13.3352 18.7399 13.8744 18.7399 14.458C18.7399 16.42 18.2036 18.8461 16.475 20.5746C14.7937 22.3254 12.6455 23.2592 9.79978 23.2592C4.52518 23.2592 0.0898438 18.9628 0.0898438 13.6882C0.0898438 8.41357 4.52518 4.11719 9.79978 4.11719C12.7178 4.11719 14.7965 5.26215 16.3583 6.75449L14.513 8.59977C13.3931 7.54929 11.8757 6.73226 9.797 6.73226C5.94526 6.73226 2.93279 9.83643 2.93279 13.6882C2.93279 17.5399 5.94526 20.6441 9.797 20.6441C12.2954 20.6441 13.7182 19.6409 14.6297 18.7293C15.369 17.9901 15.8553 16.9341 16.047 15.4918L9.797 15.4945Z" fill="#7B8394"/>
</g>
<defs>
<clipPath id="clip0_563_621">
<rect width="75.3333" height="32" fill="white"/>
</clipPath>
</defs>
</svg>
