<svg width="70" height="28" viewBox="0 0 70 28" fill="none" xmlns="http://www.w3.org/2000/svg">
<g clip-path="url(#clip0_563_649)">
<path d="M13.5979 25.9594V27.9021H0V25.9594H13.5979ZM34.8481 25.9594C33.4841 27.2134 31.6974 27.907 29.8446 27.9019L15.5404 27.8828V25.9594H34.8481ZM55.0666 25.9594L54.3883 27.9019L53.716 25.9594H55.0666ZM48.5638 25.9594V27.9021H38.851V25.9594H48.5638ZM69.9317 25.9594V27.9021H60.219V25.9594H69.9317ZM37.0484 22.2511C36.8817 22.9325 36.6185 23.5867 36.2668 24.1936H15.5404V22.2511H37.0484ZM56.3684 22.2511L55.6867 24.1938H53.0961L52.4142 22.2511H56.3684ZM48.5638 22.2511V24.1936H38.851V22.2511H48.5638ZM69.9317 22.2511V24.1936H60.219V22.2511H69.9317ZM13.5979 22.2511V24.1936H0V22.2511H13.5979ZM9.71259 18.5424V20.4851H3.88503V18.5424H9.71259ZM25.253 18.5424V20.4851H19.4253V18.5424H25.253ZM37.0017 18.5424C37.1738 19.1756 37.2611 19.8289 37.2615 20.4851H30.7276V18.5424H37.0017ZM57.6703 18.5424L56.9883 20.4851H51.7941L51.112 18.5424H57.6703ZM48.5636 18.5424V20.4851H42.7359V18.5424H48.5636ZM66.0465 18.5424V20.4851H60.2189V18.5424H66.0465ZM9.71259 14.834V16.7765H3.88503V14.834H9.71259ZM48.5636 14.834V16.7765H42.7359V14.834H48.5636ZM66.0465 14.834V16.7765H60.2189V14.834H66.0465ZM34.6442 14.834C35.2911 15.3843 35.8391 16.0413 36.2645 16.7764H19.4254V14.8339L34.6442 14.834ZM58.9722 14.834L58.2904 16.7765H50.4921L49.8102 14.8339L58.9722 14.834ZM53.8451 11.1256L54.3912 12.6958L54.9371 11.1256H66.0464V13.0681H60.2191V11.2833L59.5922 13.0682H49.1904L48.5636 11.2831V13.0682H42.7362V11.1256H53.8451ZM19.4253 11.1256H36.2648C35.8394 11.8607 35.2913 12.5177 34.6443 13.0681H19.4254L19.4253 11.1256ZM9.71259 11.1256V13.0681H3.88503V11.1254L9.71259 11.1256ZM9.71259 7.417V9.35952H3.88503V7.417H9.71259ZM25.253 7.417V9.35952H19.4253V7.417H25.253ZM37.2616 7.417C37.2612 8.07315 37.1738 8.72636 37.0017 9.35952H30.7276V7.417H37.2616ZM52.5555 7.417L53.231 9.35952H42.7362V7.417H52.5555ZM66.0464 7.417V9.35952H55.5515L56.2269 7.417H66.0464ZM13.5976 3.70844V5.65109H0V3.7083L13.5976 3.70844ZM36.2667 3.70844C36.6184 4.31543 36.8815 4.96954 37.0482 5.65095H15.5401V3.70844H36.2667ZM69.9316 3.70844V5.65095H56.841L57.5165 3.70844H69.9316ZM51.2658 3.70844L51.9414 5.65095H38.8509V3.70844H51.2658ZM13.598 0.000143365V1.94252H0V6.77913e-06L13.598 0.000143365ZM29.8446 6.77913e-06C31.697 -0.00250088 33.4827 0.690778 34.8481 1.94252H15.5404V6.77913e-06H29.8446ZM69.9317 6.77913e-06V1.94266H58.1307L58.8063 0.000143365L69.9317 6.77913e-06ZM49.9766 6.77913e-06L50.652 1.94266H38.851V0.000143365L49.9766 6.77913e-06Z" fill="#7B8394"/>
</g>
<defs>
<clipPath id="clip0_563_649">
<rect width="69.9317" height="28" fill="white"/>
</clipPath>
</defs>
</svg>
