<svg width="112" height="24" viewBox="0 0 112 24" fill="none" xmlns="http://www.w3.org/2000/svg">
<g clip-path="url(#clip0_563_634)">
<path d="M111.708 10.7906V8.82589H109.268V5.77178L109.186 5.79687L106.895 6.49811L106.85 6.51185V8.82589H103.233V7.53687C103.233 6.93665 103.367 6.47716 103.632 6.17105C103.894 5.86821 104.27 5.7144 104.749 5.7144C105.094 5.7144 105.45 5.79556 105.81 5.95549L105.899 5.99563V3.92683L105.857 3.91156C105.522 3.79091 105.067 3.73047 104.502 3.73047C103.791 3.73047 103.144 3.88516 102.58 4.19214C102.024 4.49102 101.566 4.94369 101.261 5.496C100.951 6.05323 100.794 6.69665 100.794 7.4088V8.82611H99.0955V10.7908H100.794V19.0671H103.233V10.7906H106.85V16.0501C106.85 18.2162 107.871 19.3141 109.886 19.3141C110.235 19.3121 110.582 19.2735 110.922 19.1989C111.284 19.121 111.531 19.0431 111.676 18.96L111.708 18.941V16.9582L111.609 17.0239C111.476 17.1122 111.312 17.1842 111.118 17.2377C110.924 17.2922 110.762 17.3197 110.637 17.3197C110.164 17.3197 109.815 17.1925 109.599 16.9414C109.379 16.6883 109.268 16.2452 109.268 15.6255V10.7906H111.708ZM93.6494 17.3199C92.7643 17.3199 92.0665 17.0262 91.5745 16.4483C91.0799 15.8671 90.829 15.0388 90.829 13.9861C90.829 12.9002 91.0799 12.0504 91.575 11.4589C92.067 10.8716 92.7582 10.5733 93.6296 10.5733C94.475 10.5733 95.1481 10.858 95.6303 11.4203C96.1149 11.9852 96.3608 12.8282 96.3608 13.9268C96.3608 15.0388 96.1295 15.8932 95.6735 16.4647C95.2208 17.0319 94.5398 17.3199 93.6494 17.3199ZM93.7581 8.57912C92.0694 8.57912 90.728 9.07396 89.7719 10.0499C88.816 11.026 88.3315 12.3766 88.3315 14.0649C88.3315 15.6683 88.8045 16.958 89.7374 17.8977C90.6704 18.8376 91.9402 19.3137 93.5109 19.3137C95.1479 19.3137 96.4624 18.8121 97.4185 17.8226C98.3741 16.8343 98.8585 15.4964 98.8585 13.8473C98.8585 12.2191 98.404 10.9198 97.5075 9.9864C96.6104 9.05258 95.3486 8.57912 93.7581 8.57912ZM84.3994 8.57912C83.2507 8.57912 82.3005 8.87301 81.5746 9.45229C80.8446 10.0351 80.4741 10.7996 80.4741 11.7244C80.4741 12.2051 80.5539 12.6321 80.7115 12.9943C80.8696 13.3577 81.1147 13.6776 81.4402 13.9462C81.7631 14.2126 82.2616 14.4916 82.9225 14.7753C83.4778 15.0039 83.8921 15.1975 84.1552 15.3497C84.4125 15.4992 84.5951 15.6493 84.6981 15.7955C84.7982 15.9384 84.8491 16.1343 84.8491 16.3758C84.8491 17.064 84.3339 17.3987 83.2738 17.3987C82.8804 17.3987 82.4318 17.3166 81.9405 17.1548C81.4527 16.9953 80.9922 16.7618 80.5753 16.4625L80.4741 16.39V18.7377L80.5112 18.7551C80.8563 18.9144 81.2914 19.0486 81.8041 19.1544C82.316 19.26 82.7807 19.3139 83.1848 19.3139C84.4312 19.3139 85.4351 19.0187 86.1673 18.4359C86.9048 17.849 87.2783 17.0668 87.2783 16.1097C87.2783 15.4196 87.0771 14.8274 86.6805 14.35C86.2871 13.8766 85.6038 13.4417 84.6507 13.0575C83.8915 12.7527 83.4049 12.4999 83.2044 12.3057C83.0109 12.118 82.9127 11.8527 82.9127 11.5169C82.9127 11.2189 83.034 10.9804 83.283 10.7871C83.5339 10.5929 83.883 10.4941 84.3206 10.4941C84.7271 10.4941 85.1427 10.5583 85.5562 10.6839C85.9694 10.8098 86.332 10.9785 86.6351 11.1844L86.7346 11.2525V9.02531L86.6964 9.00894C86.4171 8.88894 86.0484 8.7864 85.6011 8.70349C85.1552 8.62101 84.7509 8.57912 84.3994 8.57912ZM74.1165 17.3199C73.2315 17.3199 72.5336 17.0262 72.0418 16.4483C71.547 15.8671 71.2967 15.0388 71.2967 13.9861C71.2967 12.9002 71.5472 12.0504 72.0424 11.4589C72.534 10.8716 73.225 10.5733 74.0968 10.5733C74.9423 10.5733 75.6154 10.858 76.0976 11.4203C76.5822 11.9852 76.828 12.8282 76.828 13.9268C76.828 15.0388 76.5968 15.8932 76.1408 16.4647C75.6878 17.0319 75.0071 17.3199 74.1165 17.3199ZM74.2253 8.57912C72.5362 8.57912 71.1948 9.07396 70.2392 10.0499C69.2835 11.026 68.7985 12.3766 68.7985 14.0649C68.7985 15.6689 69.272 16.958 70.2047 17.8977C71.1376 18.8376 72.4072 19.3137 73.9784 19.3137C75.6147 19.3137 76.9299 18.8121 77.886 17.8226C78.8414 16.8343 79.326 15.4964 79.326 13.8473C79.326 12.2191 78.8713 10.9198 77.9746 9.9864C77.0772 9.05258 75.8157 8.57912 74.2253 8.57912ZM65.0966 10.5995V8.82589H62.6877V19.0667H65.0964V13.8279C65.0964 12.9371 65.2984 12.2053 65.6971 11.6527C66.0904 11.1065 66.6149 10.8297 67.2549 10.8297C67.472 10.8297 67.7155 10.8655 67.9792 10.9364C68.2404 11.0066 68.4296 11.083 68.5411 11.1633L68.6423 11.2368V8.80843L68.603 8.79163C68.379 8.69629 68.0615 8.64829 67.66 8.64829C67.0546 8.64829 66.5128 8.84269 66.049 9.2256C65.6416 9.56225 65.3471 10.0239 65.1222 10.5995H65.0966ZM58.3738 8.57912C57.2687 8.57912 56.2827 8.81629 55.4443 9.28341C54.6043 9.75141 53.9543 10.4201 53.5123 11.27C53.0722 12.118 52.8488 13.1086 52.8488 14.2132C52.8488 15.1807 53.0654 16.0687 53.4935 16.8511C53.922 17.635 54.5286 18.2483 55.2961 18.6737C56.0628 19.0985 56.9488 19.3139 57.9296 19.3139C59.0744 19.3139 60.0518 19.085 60.8358 18.6338L60.8672 18.6155V16.4086L60.7662 16.4825C60.4056 16.7439 60.0084 16.9506 59.5875 17.0961C59.1616 17.2446 58.7737 17.3197 58.4334 17.3197C57.488 17.3197 56.7294 17.0241 56.1784 16.4411C55.6264 15.857 55.3465 15.0373 55.3465 14.0055C55.3465 12.9674 55.6384 12.1265 56.2136 11.5058C56.7872 10.8873 57.5473 10.5735 58.4731 10.5735C59.2648 10.5735 60.0363 10.8417 60.7662 11.3712L60.8672 11.4445V9.11912L60.8347 9.1008C60.5598 8.94698 60.1854 8.82 59.7202 8.72378C59.2572 8.62778 58.8043 8.57912 58.3738 8.57912ZM51.1897 8.82589H48.7806V19.0667H51.1897V8.82589ZM50.0098 4.46334C49.6134 4.46334 49.2675 4.5984 48.9835 4.86567C48.6981 5.13403 48.5532 5.47178 48.5532 5.87018C48.5532 6.26247 48.6963 6.59389 48.9787 6.85505C49.2595 7.11534 49.6064 7.24734 50.0098 7.24734C50.413 7.24734 50.7612 7.11534 51.0453 6.85549C51.3311 6.59389 51.4762 6.26247 51.4762 5.87018C51.4762 5.48574 51.335 5.15127 51.0571 4.87658C50.7793 4.60232 50.4267 4.46334 50.0098 4.46334ZM43.9993 8.07054V19.0665H46.4578V4.77687H43.0552L38.7302 15.3908L34.5333 4.77687H30.9922V19.0667H33.3025V8.06945H33.3819L37.8139 19.0667H39.5571L43.9199 8.07032L43.9993 8.07054Z" fill="#7B8394"/>
<path d="M11.3321 11.3321H0V0H11.3321V11.3321Z" fill="#7B8394"/>
<path d="M23.8439 11.3321H12.5117V0H23.8439V11.3321Z" fill="#7B8394"/>
<path d="M11.3319 23.8478H0V12.5156H11.3319V23.8478Z" fill="#7B8394"/>
<path d="M23.8439 23.8478H12.5117V12.5156H23.8439V23.8478Z" fill="#7B8394"/>
</g>
<defs>
<clipPath id="clip0_563_634">
<rect width="111.709" height="24" fill="white"/>
</clipPath>
</defs>
</svg>
