<svg width="60" height="40" viewBox="0 0 60 40" fill="none" xmlns="http://www.w3.org/2000/svg">
<g clip-path="url(#clip0_563_667)">
<path d="M3.4527 24.0469C3.70631 24.7199 4.05742 25.2953 4.5061 25.7732C4.95478 26.2512 5.48633 26.6169 6.10076 26.8705C6.71525 27.1241 7.38335 27.2509 8.10512 27.2509C8.80741 27.2509 9.46573 27.1192 10.0802 26.8558C10.6947 26.5924 11.2311 26.2218 11.6895 25.744C12.1479 25.266 12.5039 24.6955 12.7575 24.0322C13.0111 23.369 13.1379 22.6278 13.1379 21.8085V9.16797H16.2102V29.6502H13.1672V27.7483C12.4844 28.47 11.6797 29.0259 10.7532 29.4161C9.82655 29.8062 8.82689 30.0013 7.75401 30.0013C6.66158 30.0013 5.64236 29.8111 4.69625 29.4307C3.7502 29.0503 2.93086 28.5091 2.23842 27.8068C1.54597 27.1045 0.999722 26.2609 0.599859 25.2758C0.199931 24.2907 0 23.1935 0 21.984V9.16797H3.07233V21.8085C3.07233 22.6278 3.1991 23.3738 3.4527 24.0469Z" fill="#7B8394"/>
<path d="M21.5061 9.16797V16.6293C22.1888 15.9466 22.9789 15.4053 23.8762 15.0054C24.7735 14.6055 25.7489 14.4056 26.8022 14.4056C27.8946 14.4056 28.9186 14.6103 29.8745 15.02C30.8304 15.4296 31.6594 15.9856 32.3616 16.6879C33.0639 17.3902 33.6199 18.2191 34.0295 19.175C34.4392 20.1309 34.644 21.1452 34.644 22.2181C34.644 23.2909 34.4392 24.3004 34.0295 25.2465C33.6199 26.1926 33.0639 27.0168 32.3616 27.7189C31.6594 28.4212 30.8304 28.9772 29.8745 29.3868C28.9186 29.7965 27.8946 30.0012 26.8022 30.0012C25.7488 30.0012 24.7686 29.8013 23.8616 29.4014C22.9545 29.0015 22.1596 28.4602 21.4768 27.7775V29.6501H18.5508V9.16797H21.5061ZM21.8426 24.237C22.1059 24.8613 22.4717 25.4075 22.9399 25.8756C23.408 26.3438 23.9542 26.7145 24.5784 26.9876C25.2027 27.2607 25.8757 27.3972 26.5974 27.3972C27.2997 27.3972 27.9629 27.2607 28.5871 26.9876C29.2113 26.7145 29.7526 26.3439 30.2111 25.8756C30.6695 25.4075 31.0352 24.8613 31.3083 24.237C31.5814 23.6128 31.7179 22.9399 31.7179 22.2181C31.7179 21.4963 31.5814 20.8184 31.3083 20.1845C31.0352 19.5505 30.6695 18.9994 30.2111 18.5313C29.7526 18.0632 29.2114 17.6974 28.5871 17.434C27.9628 17.1707 27.2996 17.039 26.5974 17.039C25.8952 17.039 25.232 17.1707 24.6078 17.434C23.9836 17.6974 23.4374 18.0632 22.9691 18.5313C22.501 18.9994 22.1304 19.5505 21.8573 20.1845C21.5842 20.8184 21.4476 21.4963 21.4476 22.2181C21.4476 22.9399 21.5793 23.6128 21.8426 24.237Z" fill="#7B8394"/>
<path d="M36.3114 19.2042C36.7015 18.2679 37.238 17.4438 37.9207 16.7318C38.6034 16.0198 39.413 15.459 40.3493 15.0493C41.2857 14.6397 42.3 14.4349 43.3924 14.4349C44.4653 14.4349 45.4602 14.63 46.377 15.0201C47.2938 15.4102 48.0838 15.9515 48.7471 16.644C49.4103 17.3365 49.9273 18.1558 50.2978 19.1019C50.6685 20.048 50.8538 21.077 50.8538 22.1889V23.1545H38.7108C38.8084 23.7592 39.0034 24.32 39.296 24.8369C39.5887 25.3538 39.9543 25.8025 40.3932 26.1829C40.8321 26.5633 41.3296 26.8608 41.8855 27.0753C42.4415 27.2899 43.0315 27.3972 43.6558 27.3972C45.431 27.3972 46.8647 26.6657 47.9571 25.2026L50.0931 26.7827C49.3518 27.7775 48.435 28.5578 47.3427 29.1235C46.2502 29.6892 45.0213 29.9721 43.6559 29.9721C42.5439 29.9721 41.5052 29.7769 40.5396 29.3868C39.574 28.9967 38.7353 28.4505 38.0233 27.7482C37.3113 27.0459 36.7505 26.2218 36.3408 25.2757C35.9312 24.3297 35.7263 23.3006 35.7263 22.1888C35.7262 21.1354 35.9213 20.1406 36.3114 19.2042ZM40.4225 18.0484C39.5935 18.7409 39.0424 19.6626 38.7693 20.8135H47.8693C47.6157 19.6626 47.0744 18.7409 46.2453 18.0484C45.4163 17.356 44.4458 17.0097 43.3339 17.0097C42.222 17.0097 41.2516 17.356 40.4225 18.0484Z" fill="#7B8394"/>
<path d="M56.3839 18.385C55.7597 19.0677 55.4476 19.9942 55.4476 21.1647V29.6503H52.4922V14.7275H55.4183V16.5709C55.7889 15.9662 56.2717 15.4882 56.8667 15.1371C57.4616 14.7859 58.1687 14.6103 58.9881 14.6103H60.0121V17.3608H58.7832C57.8079 17.3609 57.0081 17.7022 56.3839 18.385Z" fill="#7B8394"/>
</g>
<defs>
<clipPath id="clip0_563_667">
<rect width="60" height="40" fill="white"/>
</clipPath>
</defs>
</svg>
